<?xml version="1.0" encoding="UTF-8"?>
<svg xmlns="http://www.w3.org/2000/svg" xmlns:xlink="http://www.w3.org/1999/xlink" version="1.1" viewBox="0 0 232.57 485.6">
  <!-- Generator: Adobe Illustrator 30.5.0, SVG Export Plug-In . SVG Version: 2.1.4 Build 138)  -->
  <defs>
    <style>
      .st0 {
        fill: none;
      }

      .st1 {
        fill: #5c5c5d;
      }

      .st2 {
        fill: #1f2020;
      }

      .st3 {
        fill: #717272;
      }

      .st4 {
        fill: #070707;
      }

      .st5 {
        fill: #a4a5a6;
      }

      .st6 {
        fill: #323232;
      }

      .st7 {
        fill: #b4b5b5;
      }

      .st8 {
        fill: #929394;
      }

      .st9 {
        fill: #111;
      }

      .st10 {
        fill: #2c2c2d;
      }

      .st11 {
        fill: #2b2b2b;
      }

      .st12 {
        fill: #bebfc0;
      }

      .st13 {
        fill: #858586;
      }

      .st14 {
        fill: #6a6b6b;
      }

      .st15 {
        fill: #050505;
      }

      .st16 {
        fill: #b6b7b7;
      }

      .st17 {
        fill: #525253;
      }

      .st18 {
        fill: #a6a7a8;
      }

      .st19 {
        fill: #151515;
      }

      .st20 {
        fill: url(#linear-gradient2);
      }

      .st21 {
        fill: url(#linear-gradient1);
      }

      .st22 {
        fill: url(#linear-gradient9);
      }

      .st23 {
        fill: url(#linear-gradient3);
      }

      .st24 {
        fill: url(#linear-gradient6);
      }

      .st25 {
        fill: url(#linear-gradient8);
      }

      .st26 {
        fill: url(#linear-gradient7);
      }

      .st27 {
        fill: url(#linear-gradient5);
      }

      .st28 {
        fill: url(#linear-gradient4);
      }

      .st29 {
        fill: #adadb0;
      }

      .st30 {
        fill: #a9a9a9;
      }

      .st31 {
        fill: #8b8c8d;
      }

      .st32 {
        fill: #595a5a;
      }

      .st33 {
        fill: #2f2f2f;
      }

      .st34 {
        fill: #7a7b7b;
      }

      .st35 {
        fill: #3f4040;
      }

      .st36 {
        fill: #5e5f5f;
      }

      .st37 {
        fill: #414141;
      }

      .st38 {
        fill: #393939;
      }

      .st39 {
        fill: #696a6a;
      }

      .st40 {
        fill: #878788;
      }

      .st41 {
        fill: gray;
      }

      .st42 {
        fill: #9d9e9f;
      }

      .st43 {
        fill: #363636;
      }

      .st44 {
        fill: #818182;
      }

      .st45 {
        fill: #5b5b5b;
      }

      .st46 {
        fill: #89898a;
      }

      .st47 {
        fill: #959596;
      }

      .st48 {
        fill: url(#linear-gradient10);
      }

      .st49 {
        fill: #656666;
      }

      .st50 {
        fill: #030303;
      }

      .st51 {
        fill: #bcbdbe;
      }

      .st52 {
        fill: #7b7c7c;
      }

      .st53 {
        fill: #a3a4a4;
      }

      .st54 {
        fill: #1a171b;
      }

      .st55 {
        fill: #d8e7e9;
        opacity: .3;
      }

      .st56 {
        fill: #454545;
      }

      .st57 {
        fill: #a5a6a7;
      }

      .st58 {
        fill: #a1a2a3;
      }

      .st59 {
        fill: #171717;
      }

      .st60 {
        fill: url(#radial-gradient);
      }

      .st61 {
        fill: #919293;
      }

      .st62 {
        fill: #3a3a3b;
      }

      .st63 {
        fill: #9ea0a0;
      }

      .st64 {
        fill: url(#linear-gradient);
      }

      .st65 {
        opacity: .05;
      }

      .st65, .st66 {
        fill: #fff;
      }

      .st67 {
        fill: #8f9091;
      }

      .st68 {
        fill: #b3b4b4;
      }

      .st69 {
        fill: #1e1e1e;
      }

      .st70 {
        fill: #7d7e7e;
      }

      .st71 {
        fill: #8c8d8e;
      }

      .st72 {
        fill: #b9babb;
      }

      .st73 {
        fill: #424243;
      }

      .st74 {
        fill: #212121;
      }

      .st75 {
        fill: #4d4d4d;
      }

      .st76 {
        fill: #8b8b8c;
      }

      .st77 {
        isolation: isolate;
      }

      .st78 {
        fill: #939494;
      }

      .st79 {
        fill: #3d3d3d;
      }

      .st80 {
        fill: #575758;
      }

      .st81 {
        fill: #272727;
      }

      .st82 {
        fill: #b5b6b6;
      }

      .st83 {
        fill: #7c7d7d;
      }

      .st84 {
        fill: #a7a8a9;
      }

      .st85 {
        fill: #6b6c6c;
      }

      .st86 {
        fill: #b8b9ba;
      }

      .st87 {
        fill: #434444;
      }

      .st88 {
        fill: #888889;
      }

      .st89 {
        fill: #9c9c9d;
      }

      .st90 {
        fill: #141414;
      }

      .st91 {
        fill: #9a9b9c;
      }

      .st92 {
        fill: #e0e3ea;
        opacity: .2;
      }

      .st93 {
        fill: #b7b8b8;
      }

      .st94 {
        fill: #727373;
      }

      .st95 {
        fill: #979899;
      }

      .st96 {
        fill: #646565;
      }

      .st97 {
        fill: #babbbc;
      }

      .st98 {
        fill: #838384;
      }

      .st99 {
        fill: #a4a4a5;
      }

      .st100 {
        fill: #ababae;
      }

      .st101 {
        fill: #4e4e4f;
      }

      .st102 {
        fill: #464647;
      }

      .st103 {
        fill: #7e7f7f;
      }

      .st104 {
        fill: #6f6f70;
      }

      .st105 {
        fill: #292a2a;
      }

      .st106 {
        fill: #121212;
      }

      .st107 {
        fill: #373838;
      }

      .st108 {
        fill: #a9a9ab;
      }

      .st109 {
        fill: #808081;
      }

      .st110 {
        fill: #535354;
      }

      .st111 {
        fill: #8d8e8f;
      }

      .st112 {
        fill: #242424;
      }

      .st113 {
        fill: #a7a7a8;
      }

      .st114 {
        fill: #969798;
      }

      .st115 {
        fill: #505151;
      }

      .st116 {
        fill: #5f6060;
      }

      .st117 {
        fill: #565656;
      }

      .st118 {
        fill: #5d5d5e;
      }

      .st119 {
        fill: #bdbebf;
      }

      .st120 {
        fill: #adadaf;
      }

      .st121 {
        fill: #9c9e9e;
      }

      .st122 {
        fill: #79797a;
      }

      .st123 {
        fill: #2e2e2e;
      }

      .st124 {
        fill: #999a9b;
      }

      .st125 {
        fill: #4f5050;
      }

      .st126 {
        fill: #9fa0a1;
      }

      .st127 {
        fill: #282828;
      }

      .st128 {
        fill: #828283;
      }

      .st129 {
        fill: #0c0c0c;
      }

      .st130 {
        fill: #aaabac;
      }

      .st131 {
        fill: #b2b3b3;
      }

      .st132 {
        fill: url(#radial-gradient1);
      }

      .st133 {
        fill: #a0a2a2;
      }

      .st134 {
        fill: #545555;
      }

      .st135 {
        fill: #a2a3a4;
      }

      .st136 {
        fill: #787879;
      }

      .st137 {
        fill: #303131;
      }

      .st138 {
        fill: #868687;
      }

      .st139 {
        fill: #585859;
      }

      .st140 {
        fill: #3e3e3f;
      }

      .st141 {
        fill: #7f7f7f;
      }

      .st142 {
        fill: #474848;
      }

      .st143 {
        fill: #8a8a8b;
      }

      .st144 {
        fill: #676768;
      }

      .st145 {
        fill: #0a0a0a;
      }

      .st146 {
        fill: #252525;
      }

      .st147 {
        fill: #1c1d1d;
      }

      .st148 {
        fill: #939598;
      }

      .st149 {
        fill: #494949;
      }

      .st150 {
        fill: #636464;
      }

      .st151 {
        fill: #707071;
      }

      .st152 {
        fill: #747576;
      }

      .st153 {
        fill: #4b4c4c;
      }

      .st154 {
        fill: #6c6d6e;
      }

      .st155 {
        fill: #8e8f90;
      }

      .st156 {
        fill: #bbbcbd;
      }

      .st157 {
        fill: #969697;
      }

      .st158 {
        fill: #616162;
      }

      .st159 {
        fill: #7f7f80;
      }

      .st160 {
        fill: #353535;
      }

      .st161 {
        fill: #848485;
      }

      .st162 {
        fill: #98999a;
      }

      .st163 {
        fill: #949595;
      }

      .st164 {
        fill: #686869;
      }

      .st165 {
        fill: #9b9c9c;
      }

      .st166 {
        fill: #b0b0b2;
      }

      .st167 {
        fill: #afafaf;
      }

      .st168 {
        fill: #a8a9aa;
      }

      .st169 {
        fill: #777778;
      }

      .st170 {
        fill: #3b3c3c;
      }

      .st171 {
        fill: #626263;
      }

      .st172 {
        fill: #1a1a1a;
      }

      .st173 {
        fill: #afafb1;
      }

      .st174 {
        fill: #6e6e6f;
      }

      .st175 {
        fill: #a0a0a1;
      }

      .st176 {
        clip-path: url(#clippath);
      }

      .st177 {
        fill: #181818;
      }

      .st178 {
        fill: #0e0e0e;
      }

      .st179 {
        fill: #4a4a4b;
      }

      .st180 {
        fill: #ababad;
      }

      .st181 {
        fill: #b1b2b3;
      }

      .st182 {
        fill: #1b1b1b;
      }

      .st183 {
        fill: #737474;
      }

      .st184 {
        fill: #909192;
      }

      .st185 {
        fill: #222223;
      }

      .st186 {
        fill: #333334;
      }

      .st187 {
        fill: #767677;
      }

      .st188 {
        mix-blend-mode: screen;
        opacity: .6;
      }
    </style>
    <linearGradient id="linear-gradient" x1="-313.54" y1="-74.58" x2="-313.54" y2="411.74" gradientTransform="translate(-288.31 95.01) rotate(176.46) scale(1 -1)" gradientUnits="userSpaceOnUse">
      <stop offset="0" stop-color="#2e2d2c"/>
      <stop offset="0" stop-color="#302f2e"/>
      <stop offset=".01" stop-color="#383736"/>
      <stop offset=".02" stop-color="#464645"/>
      <stop offset=".02" stop-color="#5b5a59"/>
      <stop offset=".02" stop-color="#757473"/>
      <stop offset=".03" stop-color="#959494"/>
      <stop offset=".03" stop-color="#bbbaba"/>
      <stop offset=".03" stop-color="#e6e6e5"/>
      <stop offset=".03" stop-color="#fafafa"/>
      <stop offset=".04" stop-color="#e1e1e1"/>
      <stop offset=".05" stop-color="#a4a4a3"/>
      <stop offset=".06" stop-color="#414140"/>
      <stop offset=".06" stop-color="#40403f"/>
      <stop offset=".13" stop-color="#444443"/>
      <stop offset=".21" stop-color="#535352"/>
      <stop offset=".29" stop-color="#6a6a69"/>
      <stop offset=".35" stop-color="#7f7f7e"/>
      <stop offset=".53" stop-color="#818180"/>
      <stop offset=".58" stop-color="#6c6c6b"/>
      <stop offset=".64" stop-color="#5b5b5a"/>
      <stop offset=".68" stop-color="#555554"/>
      <stop offset=".89" stop-color="#454443"/>
      <stop offset=".96" stop-color="#bec0be"/>
      <stop offset=".96" stop-color="#9d9f9d"/>
      <stop offset=".96" stop-color="#7e7f7d"/>
      <stop offset=".96" stop-color="#646462"/>
      <stop offset=".97" stop-color="#4e4e4c"/>
      <stop offset=".97" stop-color="#3e3d3b"/>
      <stop offset=".98" stop-color="#32312f"/>
      <stop offset=".98" stop-color="#2b2a28"/>
      <stop offset="1" stop-color="#2a2927"/>
    </linearGradient>
    <linearGradient id="linear-gradient1" x1="14.49" y1="242.75" x2="232.57" y2="242.75" gradientUnits="userSpaceOnUse">
      <stop offset="0" stop-color="#2a2927"/>
      <stop offset=".19" stop-color="#484746"/>
      <stop offset=".39" stop-color="#605f5f"/>
      <stop offset=".57" stop-color="#6f6e6e"/>
      <stop offset=".72" stop-color="#757474"/>
    </linearGradient>
    <linearGradient id="linear-gradient2" x1="40.88" y1="57.99" x2="40.88" y2="17.39" gradientTransform="translate(-30.9 79.35) rotate(-3.54)" gradientUnits="userSpaceOnUse">
      <stop offset="0" stop-color="#535352"/>
      <stop offset=".03" stop-color="#4d4c4b"/>
      <stop offset=".11" stop-color="#464544"/>
      <stop offset=".32" stop-color="#454443"/>
      <stop offset=".72" stop-color="#434241"/>
      <stop offset=".86" stop-color="#3c3b3a"/>
      <stop offset=".96" stop-color="#31302e"/>
      <stop offset="1" stop-color="#2a2927"/>
    </linearGradient>
    <linearGradient id="linear-gradient3" x1="40.55" y1="57.66" x2="40.55" y2="18.05" gradientTransform="translate(-30.9 79.35) rotate(-3.54)" gradientUnits="userSpaceOnUse">
      <stop offset="0" stop-color="#696969"/>
      <stop offset="1" stop-color="#434241"/>
    </linearGradient>
    <linearGradient id="linear-gradient4" x1="40.97" y1="18.79" x2="40.97" y2="57.66" gradientTransform="translate(-30.9 79.35) rotate(-3.54)" gradientUnits="userSpaceOnUse">
      <stop offset="0" stop-color="#b8bab9"/>
      <stop offset="0" stop-color="#bcbdbd"/>
      <stop offset=".02" stop-color="#d1d2d2"/>
      <stop offset=".03" stop-color="#e2e3e2"/>
      <stop offset=".06" stop-color="#eee"/>
      <stop offset=".09" stop-color="#f5f5f5"/>
      <stop offset=".17" stop-color="#f7f7f7"/>
      <stop offset=".38" stop-color="#f4f4f4"/>
      <stop offset=".47" stop-color="#ededed"/>
      <stop offset=".55" stop-color="#e0e0e0"/>
      <stop offset=".61" stop-color="#cececd"/>
      <stop offset=".67" stop-color="#b6b6b6"/>
      <stop offset=".72" stop-color="#999898"/>
      <stop offset=".77" stop-color="#767675"/>
      <stop offset=".81" stop-color="#4f4e4d"/>
      <stop offset=".84" stop-color="#2e2d2c"/>
    </linearGradient>
    <linearGradient id="linear-gradient5" x1="40.89" y1="111.94" x2="40.89" y2="71.34" xlink:href="#linear-gradient2"/>
    <linearGradient id="linear-gradient6" x1="40.55" y1="111.62" x2="40.55" y2="72.01" xlink:href="#linear-gradient3"/>
    <linearGradient id="linear-gradient7" x1="40.97" y1="72.74" x2="40.97" y2="111.62" xlink:href="#linear-gradient4"/>
    <linearGradient id="linear-gradient8" x1="-400.07" y1="-80.11" x2="-400.07" y2="-74.11" gradientTransform="translate(-335.97 96.62) rotate(-179.54) scale(1.08 -1)" gradientUnits="userSpaceOnUse">
      <stop offset=".03" stop-color="#000"/>
      <stop offset="1" stop-color="#1f1f1f"/>
    </linearGradient>
    <linearGradient id="linear-gradient9" x1="-400.07" y1="-74.85" x2="-400.07" y2="-79.35" gradientTransform="translate(-335.97 96.62) rotate(-179.54) scale(1.08 -1)" gradientUnits="userSpaceOnUse">
      <stop offset="0" stop-color="#363636"/>
      <stop offset="1" stop-color="#000"/>
    </linearGradient>
    <radialGradient id="radial-gradient" cx="-261.61" cy="-11.34" fx="-261.61" fy="-11.34" r="1.88" gradientTransform="translate(-158.86 33) rotate(-179.55) scale(.97 -1.05)" gradientUnits="userSpaceOnUse">
      <stop offset="0" stop-color="#508cb5"/>
      <stop offset=".03" stop-color="#4a82aa"/>
      <stop offset=".15" stop-color="#365e82"/>
      <stop offset=".28" stop-color="#254060"/>
      <stop offset=".41" stop-color="#172947"/>
      <stop offset=".55" stop-color="#0e1934"/>
      <stop offset=".69" stop-color="#080f29"/>
      <stop offset=".85" stop-color="#070c26"/>
    </radialGradient>
    <radialGradient id="radial-gradient1" cx="-721.99" cy="-265.08" fx="-721.99" fy="-265.08" r="1.58" gradientTransform="translate(-272.12 165.04) rotate(-179.54) scale(.51 -.55)" gradientUnits="userSpaceOnUse">
      <stop offset="0" stop-color="#add8e5"/>
      <stop offset=".1" stop-color="#93b6c5"/>
      <stop offset=".26" stop-color="#70879a"/>
      <stop offset=".41" stop-color="#536076"/>
      <stop offset=".57" stop-color="#3c425a"/>
      <stop offset=".72" stop-color="#2c2d46"/>
      <stop offset=".86" stop-color="#22203a"/>
      <stop offset="1" stop-color="#1f1c36"/>
    </radialGradient>
    <linearGradient id="linear-gradient10" x1="-319.51" y1="-74.59" x2="-319.51" y2="411.75" gradientTransform="translate(-288.31 95.01) rotate(176.46) scale(1 -1)" gradientUnits="userSpaceOnUse">
      <stop offset="0" stop-color="#2a2927"/>
      <stop offset=".07" stop-color="#393837"/>
      <stop offset=".15" stop-color="#454444"/>
      <stop offset=".26" stop-color="#4c4b4b"/>
      <stop offset=".5" stop-color="#4f4e4e"/>
      <stop offset=".7" stop-color="#515050"/>
      <stop offset=".84" stop-color="#5a5a59"/>
      <stop offset=".95" stop-color="#666665"/>
      <stop offset=".98" stop-color="#2a2927"/>
    </linearGradient>
    <clipPath id="clippath">
      <path class="st0" d="M37.05,1.58c1.38-2.13-5.36-1.14-10.95,2.55-5.2,3.41-8.98,9.68-4.45,8.03.31.5.85-2.45,5.91-6.05,5.02-3.67,9.54-3.86,9.5-4.53Z"/>
    </clipPath>
  </defs>
  <g class="st77">
    <g id="Layer_1">
      <g>
        <path class="st66" d="M68.93,478.39c.43-.03.87-.07,1.31-.12l138.54-19.31c11.12-1.58,19.51-13.27,18.72-26.08l-24.8-400.59c-.8-12.82-10.58-23.4-21.8-23.58L41.03,6.65c-.44,0-.88,0-1.31.03-10.59.66-18.27,11.35-17.46,24.35l26.35,425.37c.81,13,9.74,22.65,20.33,21.99Z"/>
        <g>
          <path class="st64" d="M36.33.19s3.02-.19,6.33.16c-22.62,3.75-26.93,17.16-26.1,30.57l24.83,427.96c3.76,19.03,18.85,24.22,30.57,25.44-3.47.79-4.91,1.22-2.59,1.07-7.16.45-37.78,2.34-43.3-25.56L.34,49.71C-.55,35.29-1.03,12.51,16.72,5.54,21.36,3.71,29.24.62,36.33.19Z"/>
          <path class="st21" d="M232.5,432.57L207.69,31.98c-1.01-16.39-12.82-28.98-27.62-29.23L40.48,0c-.62,0-2,.06-2.61.09C23.35.99,13.52,14.57,14.57,31.5l26.35,425.36c1.04,16.93,13.25,29.48,27.77,28.58.61-.04,1.23-.11,1.85-.19l138.18-19.61c14.67-2.08,24.8-16.69,23.78-33.08ZM208.77,458.96l-138.54,19.31c-.44.05-.87.1-1.31.12-10.59.66-19.52-9-20.33-21.99L22.25,31.02c-.81-13,6.87-23.69,17.46-24.35.44-.02.88-.03,1.31-.03l139.86,2.06c11.23.18,21,10.76,21.8,23.58l24.8,400.59c.79,12.81-7.6,24.5-18.72,26.08Z"/>
          <path class="st148" d="M232.5,432.57L207.69,31.98c-1.01-16.39-12.82-28.98-27.62-29.23L40.48,0c-.62,0-2,.06-2.61.09C23.35.99,13.52,14.57,14.57,31.5l26.35,425.36c1.04,16.93,13.25,29.48,27.77,28.58.61-.04,1.23-.11,1.85-.19l138.18-19.61c14.67-2.08,24.8-16.69,23.78-33.08ZM208.75,463.63l-138.19,19.28c-.55.08-1.12.14-1.67.17-13.22.81-24.33-10.77-25.3-26.39L17.25,31.33c-.96-15.62,8.63-28.49,21.84-29.31.55-.03,1.11-.05,1.67-.04l139.56,2.42c13.61.22,25.09,12.46,26.04,27.65l24.81,400.59c.94,15.19-8.94,29.08-22.41,30.98Z"/>
          <g>
            <path class="st20" d="M10.98,94.17c-2.08.13-3.69,1.7-3.56,3.91l2.04,32.85c.14,2.21,1.94,3.9,4.04,3.77,2.09-.13,3.67-2.03,3.53-4.24l-2.03-32.85c-.14-2.21-1.93-3.56-4.02-3.43Z"/>
            <path class="st23" d="M10.69,94.86c-1.72.1-3.02,1.7-2.91,3.54l2.04,32.85c.11,1.83,1.61,3.26,3.32,3.15,1.72-.11,3.02-1.7,2.91-3.53l-2.03-32.85c-.11-1.84-1.61-3.26-3.32-3.15Z"/>
            <path class="st28" d="M12.68,95.47c.56.57.92,1.35.98,2.22l2.04,32.85c.12,1.84-1.2,3.43-2.91,3.54-.74.04-1.43-.19-1.99-.62.61.62,1.45.98,2.34.93,1.72-.11,3.02-1.7,2.91-3.53l-2.03-32.85c-.06-1.05-.58-1.97-1.33-2.54Z"/>
          </g>
          <g>
            <path class="st27" d="M14.32,148.03c-2.09.13-3.69,1.7-3.56,3.91l2.04,32.85c.13,2.21,1.94,3.9,4.03,3.77,2.09-.12,3.67-2.03,3.54-4.24l-2.04-32.85c-.14-2.21-1.92-3.56-4.01-3.44Z"/>
            <path class="st24" d="M14.02,148.71c-1.71.11-3.02,1.7-2.91,3.53l2.03,32.86c.12,1.83,1.61,3.25,3.32,3.15,1.72-.11,3.02-1.7,2.91-3.54l-2.03-32.85c-.12-1.83-1.61-3.25-3.32-3.15Z"/>
            <path class="st26" d="M16.01,149.33c.56.57.92,1.34.98,2.22l2.04,32.86c.11,1.83-1.2,3.42-2.91,3.53-.74.04-1.43-.19-1.99-.62.61.62,1.44.98,2.34.93,1.72-.11,3.02-1.7,2.91-3.54l-2.03-32.85c-.07-1.05-.58-1.96-1.33-2.53Z"/>
          </g>
          <path d="M231.16,432.65l-24.81-400.59c-.95-15.19-12.44-27.43-26.04-27.65L40.76,1.98c-.56,0-1.12,0-1.67.04-13.22.81-22.81,13.69-21.84,29.31l26.35,425.37c.97,15.62,12.07,27.2,25.3,26.39.55-.03,1.12-.1,1.67-.17l138.19-19.28c13.48-1.9,23.36-15.79,22.41-30.98ZM208.77,458.96l-138.54,19.31c-.44.05-.87.1-1.31.12-10.59.66-19.52-9-20.33-21.99L22.25,31.02c-.81-13,6.87-23.69,17.46-24.35.44-.02.88-.03,1.31-.03l139.86,2.06c11.23.18,21,10.76,21.8,23.58l24.8,400.59c.79,12.81-7.6,24.5-18.72,26.08Z"/>
          <g>
            <path d="M88.28,23.42c-.04,5.16,3.45,9.37,7.76,9.35,12.7-.03,24.06.03,36.76,0,4.3-.02,7.86-4,7.9-8.84h0c.03-4.84-3.45-8.88-7.76-8.96-12.7-.23-24.06-.55-36.77-.78-4.3-.08-7.85,4.07-7.89,9.24h0Z"/>
            <g>
              <path class="st25" d="M96.05,25.99c1.51,0,2.74-1.32,2.76-2.97.01-1.64-1.2-3.01-2.71-3.03-1.5-.02-2.74,1.32-2.75,2.98-.01,1.66,1.2,3.02,2.7,3.02Z"/>
              <path class="st22" d="M96.06,25.26c1.13,0,2.06-1,2.07-2.24.01-1.22-.9-2.25-2.03-2.26-1.13-.01-2.06,1-2.07,2.23,0,1.25.9,2.27,2.03,2.28Z"/>
              <path class="st54" d="M96.06,25.13c1.08,0,1.96-.94,1.97-2.12,0-1.18-.85-2.17-1.94-2.18-1.08,0-1.95.96-1.96,2.15,0,1.19.84,2.15,1.92,2.16Z"/>
              <path class="st60" d="M94.26,22.94c0,1.09.8,2.01,1.8,2.01,1,0,1.8-.9,1.82-1.97,0-1.12-.79-2.01-1.79-2.02-1.01-.01-1.82.86-1.83,1.98Z"/>
              <path class="st132" d="M95.29,22.99c0,.49.35.88.79.88.44,0,.81-.38.81-.87,0-.49-.36-.87-.8-.88-.44,0-.79.38-.8.86Z"/>
              <path class="st92" d="M96.03,22.29c0,.31.22.54.5.55.27,0,.52-.23.52-.54,0-.28-.24-.52-.51-.53-.27,0-.51.23-.51.52Z"/>
              <path class="st55" d="M96.52,22.67c0,.13-.1.24-.24.24-.12,0-.23-.12-.23-.24,0-.14.11-.25.23-.25.14,0,.24.11.24.25Z"/>
              <path class="st65" d="M94.36,23.57c.12-.37.43-.62.78-.62.48,0,.86.42.85.92,0,.44-.27.81-.63.92-.47-.23-.86-.7-1-1.22Z"/>
            </g>
          </g>
          <path class="st48" d="M37.87.09c.23,0,.58-.03.95-.05C24.51,1.16,14.87,14.63,15.91,31.41l26.34,425.37c1.03,16.64,12.85,29.05,27.05,28.62-.21.02-.41.03-.61.05-14.53.9-26.73-11.66-27.77-28.58L14.57,31.5C13.52,14.57,23.35.99,37.87.09Z"/>
          <g class="st188">
            <g class="st176">
              <polygon points="19.2 -.95 37.6 .31 35.19 14 16.8 12.74 19.2 -.95"/>
              <path d="M36.17,1.58c1.34,3-1.27,7.42-5.79,9.89-4.54,2.46-9.28,2.03-10.61-.97-1.34-2.99,1.27-7.42,5.79-9.88,4.54-2.46,9.28-2.02,10.62.96Z"/>
              <path class="st50" d="M36.15,1.6c1.32,2.99-1.27,7.39-5.77,9.85-4.52,2.46-9.25,2.02-10.58-.96-1.32-2.99,1.26-7.39,5.77-9.84,4.52-2.45,9.25-2.03,10.58.96Z"/>
              <path class="st50" d="M36.13,1.62c1.31,2.98-1.28,7.37-5.77,9.81-4.49,2.44-9.2,2.02-10.53-.96-1.32-2.98,1.24-7.37,5.75-9.8,4.5-2.45,9.22-2.02,10.55.95Z"/>
              <path class="st15" d="M36.09,1.63c1.3,2.96-1.25,7.34-5.73,9.77-4.48,2.44-9.18,2.01-10.49-.94-1.32-2.97,1.25-7.33,5.73-9.77,4.49-2.43,9.17-2.01,10.49.95Z"/>
              <path class="st15" d="M36.05,1.65c1.31,2.95-1.24,7.31-5.7,9.73-4.47,2.44-9.15,2-10.45-.94-1.32-2.96,1.24-7.31,5.7-9.73,4.47-2.43,9.14-2,10.45.94Z"/>
              <path class="st4" d="M36.02,1.66c1.3,2.94-1.25,7.28-5.69,9.69-4.44,2.42-9.11,1.99-10.41-.94-1.31-2.94,1.25-7.27,5.69-9.69,4.45-2.42,9.11-2,10.41.94Z"/>
              <path class="st145" d="M35.98,1.68c1.31,2.93-1.24,7.24-5.66,9.66-4.42,2.4-9.07,1.98-10.36-.94-1.3-2.93,1.24-7.25,5.66-9.66,4.42-2.4,9.07-1.98,10.36.94Z"/>
              <path class="st145" d="M35.96,1.7c1.29,2.91-1.23,7.22-5.65,9.61-4.4,2.4-9.02,1.99-10.32-.94-1.3-2.91,1.23-7.22,5.64-9.62,4.41-2.4,9.03-1.98,10.33.94Z"/>
              <path class="st129" d="M35.92,1.72c1.29,2.91-1.22,7.2-5.62,9.58-4.4,2.4-9,1.98-10.28-.93-1.29-2.91,1.22-7.19,5.61-9.58,4.39-2.39,9-1.98,10.29.93Z"/>
              <path class="st178" d="M35.89,1.73c1.28,2.89-1.22,7.17-5.6,9.55-4.38,2.38-8.96,1.96-10.24-.94-1.29-2.89,1.22-7.16,5.59-9.54,4.38-2.37,8.96-1.96,10.25.93Z"/>
              <path class="st178" d="M35.86,1.75c1.28,2.88-1.21,7.13-5.58,9.51-4.36,2.36-8.93,1.94-10.21-.93-1.28-2.88,1.22-7.14,5.58-9.5,4.36-2.37,8.92-1.95,10.2.92Z"/>
              <path class="st9" d="M35.83,1.77c1.27,2.88-1.2,7.11-5.55,9.47-4.34,2.35-8.89,1.94-10.17-.92-1.27-2.87,1.21-7.11,5.55-9.48,4.34-2.36,8.9-1.94,10.17.92Z"/>
              <path class="st106" d="M35.79,1.79c1.27,2.86-1.2,7.08-5.53,9.43-4.32,2.34-8.85,1.94-10.12-.92-1.27-2.86,1.22-7.08,5.53-9.43,4.33-2.34,8.87-1.93,10.12.92Z"/>
              <path class="st90" d="M35.77,1.8c1.26,2.85-1.22,7.05-5.51,9.39-4.31,2.35-8.81,1.94-10.08-.9-1.27-2.84,1.2-7.06,5.51-9.39,4.31-2.34,8.82-1.93,10.09.91Z"/>
              <path class="st19" d="M35.74,1.82c1.24,2.83-1.2,7.02-5.49,9.35-4.28,2.34-8.79,1.93-10.04-.91-1.26-2.83,1.19-7.03,5.48-9.35,4.3-2.34,8.8-1.93,10.06.91Z"/>
              <path class="st59" d="M35.7,1.84c1.26,2.83-1.19,6.99-5.47,9.31-4.26,2.32-8.74,1.92-10-.91-1.24-2.82,1.19-7,5.47-9.31,4.28-2.32,8.75-1.92,10,.91Z"/>
              <path class="st177" d="M35.67,1.85c1.25,2.82-1.18,6.98-5.44,9.28-4.26,2.32-8.71,1.92-9.96-.9-1.25-2.81,1.2-6.96,5.44-9.28,4.25-2.31,8.72-1.91,9.96.9Z"/>
              <path class="st172" d="M35.64,1.87c1.25,2.8-1.17,6.94-5.41,9.24-4.24,2.3-8.68,1.9-9.92-.9-1.25-2.79,1.19-6.94,5.42-9.24,4.23-2.3,8.67-1.89,9.91.9Z"/>
              <path class="st182" d="M35.61,1.89c1.23,2.79-1.18,6.91-5.4,9.2-4.22,2.29-8.65,1.89-9.88-.9-1.25-2.78,1.18-6.9,5.4-9.2,4.21-2.29,8.64-1.88,9.88.9Z"/>
              <path class="st147" d="M35.58,1.9c1.23,2.78-1.18,6.89-5.39,9.17-4.19,2.29-8.6,1.88-9.83-.89-1.23-2.78,1.18-6.89,5.37-9.17,4.21-2.28,8.61-1.89,9.85.89Z"/>
              <path class="st69" d="M35.56,1.93c1.22,2.76-1.18,6.86-5.37,9.12-4.17,2.27-8.57,1.87-9.79-.9-1.24-2.76,1.16-6.85,5.34-9.12,4.19-2.26,8.57-1.87,9.82.9Z"/>
              <path class="st2" d="M35.52,1.94c1.22,2.75-1.16,6.83-5.34,9.09-4.16,2.26-8.53,1.87-9.75-.89-1.22-2.75,1.16-6.82,5.33-9.09,4.17-2.27,8.54-1.87,9.76.89Z"/>
              <path class="st74" d="M35.48,1.95c1.23,2.75-1.16,6.8-5.31,9.06-4.15,2.25-8.5,1.85-9.72-.89-1.21-2.74,1.16-6.79,5.32-9.05,4.15-2.26,8.5-1.86,9.71.88Z"/>
              <path class="st185" d="M35.46,1.98c1.22,2.72-1.16,6.76-5.3,9.01-4.13,2.24-8.45,1.86-9.67-.88-1.22-2.72,1.15-6.76,5.28-9.01,4.14-2.25,8.47-1.85,9.69.88Z"/>
              <path class="st112" d="M35.42,1.99c1.21,2.72-1.16,6.74-5.27,8.97-4.11,2.24-8.43,1.84-9.63-.88-1.21-2.72,1.14-6.73,5.26-8.97,4.12-2.23,8.43-1.84,9.64.88Z"/>
              <path class="st146" d="M35.4,2c1.2,2.71-1.15,6.71-5.25,8.94-4.1,2.23-8.39,1.83-9.6-.88-1.19-2.7,1.16-6.71,5.25-8.94,4.08-2.22,8.4-1.84,9.6.87Z"/>
              <path class="st81" d="M35.36,2.03c1.19,2.7-1.14,6.68-5.22,8.9-4.08,2.22-8.36,1.83-9.56-.87-1.2-2.7,1.14-6.68,5.22-8.89,4.08-2.23,8.36-1.83,9.56.86Z"/>
              <path class="st127" d="M35.33,2.04c1.19,2.7-1.14,6.66-5.21,8.87-4.06,2.21-8.33,1.82-9.51-.86-1.2-2.69,1.13-6.66,5.19-8.87,4.06-2.2,8.33-1.82,9.53.86Z"/>
              <path class="st105" d="M35.3,2.06c1.19,2.68-1.14,6.63-5.18,8.82-4.04,2.21-8.28,1.82-9.48-.86-1.18-2.67,1.14-6.62,5.18-8.83,4.04-2.19,8.28-1.81,9.48.87Z"/>
              <path class="st11" d="M35.27,2.08c1.19,2.66-1.13,6.59-5.15,8.78-4.03,2.19-8.26,1.8-9.43-.86-1.19-2.65,1.12-6.6,5.15-8.78,4.02-2.19,8.25-1.81,9.43.86Z"/>
              <path class="st10" d="M35.23,2.09c1.18,2.65-1.12,6.57-5.13,8.75-4.02,2.17-8.22,1.8-9.4-.85-1.18-2.66,1.12-6.57,5.14-8.76,4-2.18,8.2-1.79,9.39.86Z"/>
              <path class="st123" d="M35.2,2.11c1.17,2.65-1.12,6.55-5.11,8.72-3.99,2.17-8.19,1.79-9.36-.86-1.17-2.63,1.12-6.54,5.11-8.71,4-2.17,8.18-1.78,9.36.85Z"/>
              <path class="st33" d="M35.18,2.13c1.16,2.63-1.11,6.51-5.09,8.67-3.97,2.16-8.15,1.78-9.32-.85-1.16-2.63,1.11-6.51,5.09-8.68,3.97-2.16,8.15-1.78,9.32.85Z"/>
              <path class="st137" d="M35.14,2.14c1.16,2.62-1.1,6.49-5.06,8.64-3.96,2.15-8.11,1.77-9.27-.85-1.17-2.62,1.11-6.48,5.07-8.63,3.96-2.15,8.11-1.78,9.26.83Z"/>
              <path class="st6" d="M35.11,2.16c1.16,2.61-1.11,6.45-5.04,8.59-3.93,2.15-8.07,1.77-9.23-.83-1.16-2.61,1.1-6.46,5.04-8.6,3.94-2.14,8.08-1.77,9.23.84Z"/>
              <path class="st186" d="M35.07,2.18c1.16,2.6-1.09,6.42-5.02,8.56-3.92,2.14-8.03,1.76-9.18-.83-1.16-2.59,1.09-6.43,5.01-8.56,3.93-2.13,8.05-1.76,9.19.83Z"/>
              <path class="st160" d="M35.05,2.19c1.14,2.59-1.1,6.41-5.01,8.52-3.9,2.13-8,1.75-9.14-.83-1.16-2.57,1.08-6.39,4.99-8.51,3.91-2.14,8.01-1.75,9.16.82Z"/>
              <path class="st43" d="M35.02,2.21c1.14,2.57-1.09,6.38-4.98,8.49-3.89,2.11-7.97,1.74-9.11-.83-1.14-2.57,1.09-6.37,4.98-8.48,3.9-2.12,7.97-1.74,9.12.82Z"/>
              <path class="st107" d="M34.98,2.23c1.13,2.56-1.08,6.35-4.95,8.45-3.88,2.1-7.93,1.72-9.07-.83-1.14-2.56,1.08-6.33,4.95-8.45,3.88-2.1,7.95-1.73,9.08.83Z"/>
              <path class="st38" d="M34.95,2.25c1.14,2.54-1.08,6.3-4.93,8.4-3.85,2.09-7.91,1.73-9.04-.81-1.12-2.55,1.08-6.31,4.93-8.41,3.86-2.09,7.9-1.72,9.03.83Z"/>
              <path class="st62" d="M34.92,2.26c1.12,2.54-1.07,6.28-4.92,8.37-3.83,2.08-7.85,1.72-8.99-.82-1.12-2.54,1.08-6.28,4.92-8.38,3.84-2.09,7.85-1.72,8.99.82Z"/>
              <path class="st170" d="M34.89,2.29c1.12,2.52-1.07,6.25-4.89,8.33-3.81,2.07-7.83,1.71-8.96-.82-1.11-2.52,1.07-6.26,4.9-8.32,3.82-2.08,7.82-1.72,8.95.81Z"/>
              <path class="st79" d="M34.86,2.3c1.12,2.51-1.06,6.23-4.86,8.28-3.8,2.07-7.79,1.71-8.91-.8-1.11-2.51,1.06-6.22,4.86-8.29,3.8-2.07,7.79-1.71,8.91.81Z"/>
              <path class="st140" d="M34.83,2.31c1.12,2.51-1.06,6.21-4.85,8.26-3.78,2.06-7.75,1.7-8.86-.8-1.12-2.51,1.05-6.21,4.84-8.26,3.78-2.05,7.75-1.69,8.86.81Z"/>
              <path class="st35" d="M34.79,2.33c1.11,2.5-1.05,6.18-4.82,8.23-3.77,2.04-7.72,1.68-8.83-.81-1.1-2.49,1.05-6.17,4.82-8.22,3.77-2.05,7.72-1.7,8.83.79Z"/>
              <path class="st37" d="M34.77,2.35c1.1,2.48-1.05,6.14-4.8,8.17-3.76,2.03-7.68,1.68-8.8-.8-1.09-2.48,1.05-6.14,4.81-8.18,3.75-2.04,7.68-1.68,8.78.8Z"/>
              <path class="st73" d="M34.73,2.37c1.09,2.47-1.05,6.12-4.77,8.15-3.74,2.02-7.66,1.67-8.76-.8-1.09-2.47,1.05-6.12,4.78-8.14,3.74-2.03,7.65-1.68,8.75.79Z"/>
              <path class="st87" d="M34.69,2.39c1.09,2.46-1.03,6.08-4.74,8.11-3.71,2.02-7.61,1.66-8.71-.8-1.09-2.46,1.04-6.08,4.75-8.1,3.72-2.03,7.62-1.67,8.7.79Z"/>
              <path class="st56" d="M34.66,2.41c1.09,2.44-1.03,6.05-4.71,8.07-3.71,2-7.59,1.65-8.67-.79-1.08-2.44,1.03-6.06,4.74-8.07,3.69-2.01,7.57-1.66,8.65.79Z"/>
              <path class="st102" d="M34.64,2.42c1.07,2.43-1.04,6.03-4.71,8.04-3.68,2-7.55,1.65-8.63-.79-1.08-2.42,1.03-6.03,4.71-8.03,3.68-2,7.55-1.64,8.63.79Z"/>
              <path class="st142" d="M34.61,2.44c1.07,2.42-1.03,6.01-4.69,7.99-3.66,1.99-7.5,1.65-8.58-.78-1.07-2.42,1.03-6,4.69-7.99,3.67-1.99,7.51-1.64,8.59.78Z"/>
              <path class="st149" d="M34.57,2.45c1.08,2.42-1.01,5.97-4.67,7.96-3.64,1.98-7.46,1.64-8.53-.77-1.07-2.41,1.01-5.97,4.66-7.95,3.65-1.98,7.47-1.64,8.54.77Z"/>
              <path class="st179" d="M34.55,2.46c1.07,2.41-1.02,5.95-4.65,7.92-3.63,1.98-7.44,1.63-8.5-.77-1.06-2.4,1.02-5.95,4.64-7.92,3.63-1.98,7.44-1.63,8.5.77Z"/>
              <path class="st153" d="M34.51,2.48c1.05,2.39-1.01,5.92-4.62,7.88-3.61,1.96-7.4,1.62-8.47-.77-1.06-2.39,1.01-5.92,4.63-7.87,3.6-1.96,7.4-1.62,8.46.76Z"/>
              <path class="st75" d="M34.49,2.51c1.05,2.37-1.01,5.89-4.6,7.84-3.6,1.95-7.37,1.61-8.42-.76-1.06-2.38.99-5.9,4.6-7.85,3.58-1.96,7.35-1.61,8.41.77Z"/>
              <path class="st101" d="M34.45,2.53c1.06,2.35-1,5.85-4.58,7.8-3.58,1.95-7.33,1.6-8.37-.76-1.05-2.37,1.01-5.86,4.58-7.81,3.58-1.95,7.33-1.6,8.37.77Z"/>
              <path class="st125" d="M34.42,2.54c1.05,2.35-1,5.84-4.56,7.76-3.55,1.93-7.28,1.59-8.34-.76-1.04-2.35,1-5.82,4.56-7.76,3.56-1.93,7.3-1.6,8.34.76Z"/>
              <path class="st115" d="M34.38,2.55c1.05,2.34-.99,5.8-4.52,7.73-3.55,1.92-7.27,1.59-8.3-.76-1.03-2.34.99-5.79,4.53-7.72,3.55-1.92,7.27-1.59,8.3.75Z"/>
              <path class="st17" d="M34.35,2.57c1.03,2.33-.98,5.77-4.51,7.69-3.52,1.92-7.22,1.58-8.26-.76-1.03-2.32.99-5.77,4.52-7.68,3.52-1.92,7.22-1.58,8.26.75Z"/>
              <path class="st110" d="M34.33,2.59c1.03,2.31-.99,5.74-4.5,7.66-3.49,1.89-7.18,1.57-8.21-.76-1.04-2.31.98-5.75,4.48-7.65,3.51-1.91,7.2-1.57,8.22.75Z"/>
              <path class="st134" d="M34.29,2.61c1.02,2.31-.97,5.71-4.47,7.61-3.49,1.91-7.15,1.57-8.18-.74-1.02-2.31.99-5.71,4.47-7.61,3.49-1.9,7.15-1.56,8.18.74Z"/>
              <path class="st117" d="M34.26,2.62c1.02,2.3-.97,5.69-4.44,7.58-3.47,1.88-7.11,1.55-8.13-.74-1.02-2.3.97-5.69,4.45-7.58,3.47-1.89,7.12-1.56,8.13.74Z"/>
              <path class="st80" d="M34.23,2.64c1.01,2.28-.97,5.67-4.42,7.54-3.46,1.87-7.09,1.55-8.1-.73-1.01-2.29.97-5.66,4.42-7.54,3.46-1.88,7.08-1.55,8.1.73Z"/>
              <path class="st139" d="M34.21,2.66c1.01,2.27-.96,5.63-4.41,7.5-3.43,1.87-7.05,1.55-8.05-.73-1.01-2.27.97-5.62,4.39-7.49,3.45-1.87,7.05-1.54,8.07.73Z"/>
              <path class="st32" d="M34.16,2.68c1.01,2.27-.96,5.61-4.38,7.46-3.41,1.85-7.01,1.53-8-.73-1.01-2.27.95-5.6,4.37-7.46,3.41-1.86,7.01-1.53,8.01.73Z"/>
              <path class="st45" d="M34.14,2.7c.99,2.25-.96,5.57-4.36,7.42-3.4,1.85-6.97,1.53-7.97-.72-1-2.26.94-5.58,4.35-7.42,3.41-1.85,6.97-1.53,7.98.72Z"/>
              <path class="st1" d="M34.11,2.71c.98,2.24-.95,5.54-4.34,7.38-3.38,1.85-6.94,1.52-7.93-.73-1-2.24.95-5.54,4.34-7.37,3.39-1.85,6.94-1.52,7.94.72Z"/>
              <path class="st118" d="M34.07,2.73c.99,2.22-.93,5.51-4.3,7.35-3.38,1.83-6.91,1.5-7.9-.72-.99-2.22.95-5.51,4.31-7.35,3.37-1.83,6.9-1.5,7.89.73Z"/>
              <path class="st36" d="M34.04,2.74c.99,2.22-.94,5.49-4.29,7.31-3.35,1.83-6.86,1.51-7.85-.71-.98-2.22.94-5.49,4.29-7.31,3.35-1.83,6.87-1.5,7.85.72Z"/>
              <path class="st116" d="M34.01,2.76c.99,2.2-.92,5.47-4.26,7.28-3.34,1.81-6.83,1.48-7.81-.72-.98-2.2.93-5.46,4.27-7.27,3.34-1.81,6.83-1.48,7.81.71Z"/>
              <path class="st158" d="M33.98,2.78c.98,2.19-.93,5.43-4.25,7.24-3.32,1.8-6.79,1.49-7.76-.71-.97-2.19.92-5.43,4.24-7.24,3.32-1.79,6.8-1.49,7.77.71Z"/>
              <path class="st171" d="M33.95,2.79c.97,2.18-.93,5.41-4.23,7.2-3.3,1.79-6.76,1.47-7.73-.71-.96-2.18.92-5.4,4.22-7.19,3.3-1.79,6.77-1.48,7.74.7Z"/>
              <path class="st150" d="M33.91,2.81c.96,2.17-.91,5.38-4.19,7.16-3.28,1.78-6.74,1.48-7.69-.7-.96-2.18.92-5.38,4.2-7.15,3.28-1.79,6.72-1.48,7.68.7Z"/>
              <path class="st96" d="M33.88,2.83c.97,2.16-.9,5.35-4.17,7.13-3.26,1.77-6.68,1.46-7.65-.7-.96-2.17.92-5.35,4.18-7.13,3.27-1.76,6.68-1.46,7.64.7Z"/>
              <path class="st49" d="M33.85,2.84c.96,2.15-.91,5.33-4.15,7.09-3.26,1.76-6.66,1.45-7.61-.69-.95-2.15.91-5.33,4.16-7.09,3.24-1.76,6.65-1.46,7.6.68Z"/>
              <path class="st144" d="M33.82,2.86c.96,2.13-.9,5.29-4.13,7.05-3.22,1.76-6.62,1.45-7.58-.69-.94-2.14.92-5.29,4.15-7.05,3.23-1.76,6.62-1.44,7.56.69Z"/>
              <path class="st164" d="M33.8,2.87c.93,2.13-.91,5.27-4.12,7.01-3.21,1.76-6.59,1.45-7.53-.67-.95-2.13.9-5.27,4.11-7.01,3.2-1.75,6.57-1.45,7.53.68Z"/>
              <path class="st39" d="M33.76,2.9c.94,2.11-.9,5.23-4.09,6.96-3.19,1.74-6.56,1.44-7.49-.68-.94-2.11.88-5.23,4.09-6.96,3.19-1.74,6.54-1.43,7.48.68Z"/>
              <path class="st14" d="M33.73,2.92c.92,2.1-.89,5.21-4.08,6.93-3.17,1.72-6.51,1.42-7.44-.68-.93-2.1.89-5.21,4.07-6.93,3.18-1.73,6.51-1.43,7.45.68Z"/>
              <path class="st85" d="M33.7,2.92c.92,2.1-.89,5.18-4.04,6.91-3.17,1.71-6.48,1.41-7.4-.69-.94-2.09.87-5.17,4.04-6.89,3.16-1.71,6.48-1.41,7.41.67Z"/>
              <path class="st154" d="M33.66,2.95c.92,2.07-.87,5.15-4.01,6.85-3.15,1.71-6.44,1.41-7.37-.67-.92-2.07.88-5.14,4.02-6.86,3.15-1.7,6.45-1.41,7.36.68Z"/>
              <path class="st174" d="M33.63,2.97c.92,2.06-.87,5.12-4,6.81-3.13,1.7-6.4,1.4-7.32-.67-.92-2.07.88-5.12,4-6.81,3.13-1.7,6.4-1.4,7.32.67Z"/>
              <path class="st104" d="M33.6,2.98c.91,2.06-.87,5.09-3.98,6.78-3.12,1.69-6.38,1.4-7.29-.66-.9-2.05.88-5.1,3.99-6.78,3.11-1.7,6.37-1.4,7.28.66Z"/>
              <path class="st151" d="M33.57,3c.92,2.05-.85,5.06-3.95,6.74-3.09,1.68-6.33,1.38-7.24-.66-.91-2.05.87-5.06,3.95-6.74,3.1-1.68,6.34-1.39,7.24.65Z"/>
              <path class="st3" d="M33.54,3.02c.9,2.03-.86,5.04-3.93,6.7-3.08,1.68-6.3,1.37-7.2-.66-.91-2.03.86-5.03,3.93-6.7,3.06-1.67,6.29-1.38,7.2.65Z"/>
              <path class="st94" d="M33.51,3.03c.9,2.02-.86,5.01-3.91,6.67-3.06,1.66-6.27,1.37-7.16-.65-.9-2.02.86-5.01,3.91-6.66,3.05-1.67,6.27-1.38,7.16.64Z"/>
              <path class="st183" d="M33.48,3.04c.88,2.02-.85,4.98-3.9,6.64-3.03,1.65-6.23,1.36-7.12-.65-.88-2.01.85-4.98,3.9-6.63,3.03-1.65,6.23-1.36,7.12.64Z"/>
              <path class="st152" d="M33.45,3.06c.88,2.01-.85,4.95-3.87,6.6-3.02,1.65-6.2,1.36-7.07-.64-.89-2,.84-4.96,3.86-6.6,3.02-1.64,6.2-1.35,7.09.64Z"/>
              <path class="st187" d="M33.42,3.08c.88,1.99-.84,4.92-3.85,6.56-3,1.63-6.16,1.35-7.04-.64-.88-1.99.84-4.93,3.85-6.55,3.01-1.63,6.16-1.34,7.05.64Z"/>
              <path class="st169" d="M33.38,3.11c.88,1.96-.83,4.88-3.81,6.51-3,1.62-6.13,1.33-7-.64-.88-1.97.83-4.88,3.82-6.51,3-1.63,6.12-1.34,7,.65Z"/>
              <path class="st136" d="M33.35,3.12c.88,1.96-.83,4.86-3.8,6.48-2.98,1.62-6.09,1.33-6.96-.64-.86-1.96.83-4.86,3.8-6.48,2.98-1.61,6.09-1.33,6.96.64Z"/>
              <path class="st122" d="M33.32,3.13c.88,1.95-.83,4.84-3.78,6.44-2.96,1.61-6.05,1.33-6.92-.62-.86-1.95.83-4.84,3.78-6.44,2.96-1.61,6.06-1.32,6.92.63Z"/>
              <path class="st34" d="M33.29,3.16c.86,1.94-.82,4.81-3.76,6.4-2.93,1.59-6.01,1.32-6.88-.62-.86-1.94.81-4.82,3.76-6.41,2.94-1.59,6.02-1.31,6.88.63Z"/>
              <path class="st52" d="M33.25,3.17c.86,1.93-.81,4.78-3.73,6.36-2.92,1.59-5.98,1.31-6.84-.62-.85-1.93.81-4.78,3.73-6.36,2.93-1.6,5.99-1.32,6.83.61Z"/>
              <path class="st83" d="M33.23,3.19c.85,1.91-.81,4.75-3.73,6.32-2.89,1.57-5.94,1.31-6.79-.62-.86-1.91.81-4.74,3.71-6.32,2.89-1.59,5.95-1.31,6.8.61Z"/>
              <path class="st70" d="M33.2,3.2c.84,1.91-.81,4.72-3.69,6.29-2.88,1.57-5.91,1.29-6.76-.61-.84-1.92.81-4.73,3.69-6.3,2.89-1.56,5.91-1.29,6.77.62Z"/>
              <path class="st103" d="M33.16,3.22c.84,1.9-.8,4.7-3.67,6.26-2.87,1.56-5.88,1.28-6.71-.62-.84-1.89.81-4.69,3.67-6.25,2.86-1.57,5.87-1.29,6.71.6Z"/>
              <path class="st141" d="M33.12,3.24c.86,1.87-.79,4.66-3.63,6.21-2.86,1.55-5.85,1.27-6.68-.61-.83-1.88.8-4.66,3.65-6.21,2.85-1.55,5.84-1.28,6.66.61Z"/>
              <path class="st141" d="M33.1,3.25c.83,1.88-.79,4.64-3.62,6.18-2.84,1.53-5.8,1.27-6.65-.61-.82-1.87.81-4.64,3.63-6.18,2.83-1.53,5.81-1.26,6.64.6Z"/>
              <path class="st141" d="M33.06,3.27c.83,1.86-.79,4.61-3.6,6.14-2.82,1.52-5.77,1.26-6.6-.6-.83-1.86.79-4.61,3.61-6.14,2.81-1.53,5.75-1.27,6.58.59Z"/>
              <path class="st141" d="M33.03,3.29c.83,1.85-.78,4.58-3.56,6.1-2.8,1.52-5.73,1.25-6.56-.6-.82-1.84.79-4.57,3.58-6.1,2.8-1.52,5.74-1.25,6.55.6Z"/>
              <path class="st159" d="M33,3.31c.82,1.84-.77,4.56-3.55,6.06-2.78,1.51-5.7,1.25-6.51-.59-.83-1.84.77-4.55,3.55-6.07,2.77-1.5,5.69-1.24,6.51.6Z"/>
              <path class="st41" d="M32.97,3.33c.81,1.83-.77,4.52-3.54,6.02-2.76,1.5-5.66,1.24-6.46-.59-.81-1.83.77-4.51,3.53-6.02,2.76-1.51,5.66-1.24,6.47.59Z"/>
              <path class="st109" d="M32.94,3.34c.81,1.82-.76,4.49-3.51,5.98-2.75,1.5-5.62,1.23-6.42-.58-.81-1.82.76-4.5,3.5-5.99,2.75-1.5,5.64-1.23,6.43.58Z"/>
              <path class="st44" d="M32.92,3.35c.8,1.81-.77,4.47-3.49,5.96-2.74,1.48-5.6,1.22-6.4-.59-.8-1.81.77-4.47,3.49-5.95,2.74-1.48,5.6-1.22,6.4.57Z"/>
              <path class="st128" d="M32.88,3.37c.8,1.8-.75,4.43-3.46,5.92-2.72,1.47-5.55,1.21-6.35-.59-.8-1.79.76-4.43,3.46-5.91,2.72-1.46,5.55-1.21,6.35.58Z"/>
              <path class="st98" d="M32.85,3.39c.79,1.78-.75,4.4-3.45,5.87-2.69,1.46-5.52,1.21-6.31-.57-.79-1.78.75-4.41,3.44-5.87,2.7-1.46,5.53-1.21,6.32.57Z"/>
              <path class="st161" d="M32.82,3.41c.79,1.77-.75,4.38-3.43,5.84-2.67,1.45-5.48,1.2-6.27-.58-.79-1.77.74-4.38,3.43-5.84,2.67-1.46,5.47-1.2,6.26.57Z"/>
              <path class="st13" d="M32.79,3.42c.78,1.76-.74,4.36-3.4,5.81-2.66,1.44-5.45,1.18-6.23-.57-.77-1.76.74-4.36,3.39-5.81,2.67-1.44,5.45-1.19,6.24.57Z"/>
              <path class="st138" d="M32.75,3.44c.78,1.75-.73,4.34-3.38,5.77-2.62,1.44-5.4,1.18-6.18-.56-.77-1.75.74-4.33,3.37-5.76,2.65-1.44,5.42-1.18,6.19.55Z"/>
              <path class="st40" d="M32.72,3.45c.77,1.74-.73,4.3-3.35,5.73-2.62,1.43-5.38,1.18-6.14-.55-.77-1.74.72-4.3,3.34-5.73,2.64-1.42,5.38-1.18,6.15.55Z"/>
              <path class="st88" d="M32.69,3.48c.77,1.72-.73,4.26-3.33,5.69-2.61,1.41-5.34,1.16-6.11-.56-.77-1.72.73-4.27,3.33-5.69,2.6-1.41,5.34-1.16,6.11.57Z"/>
              <path class="st46" d="M32.67,3.49c.75,1.72-.72,4.24-3.31,5.64-2.6,1.42-5.3,1.17-6.07-.54-.76-1.71.73-4.24,3.32-5.65,2.59-1.4,5.3-1.16,6.07.55Z"/>
              <path class="st143" d="M32.63,3.52c.75,1.69-.73,4.2-3.29,5.6-2.58,1.39-5.27,1.15-6.03-.55-.75-1.7.71-4.21,3.29-5.61,2.58-1.39,5.27-1.16,6.03.55Z"/>
              <path class="st76" d="M32.59,3.53c.76,1.68-.71,4.18-3.26,5.57-2.56,1.39-5.23,1.15-5.99-.55-.75-1.69.72-4.18,3.28-5.57,2.55-1.39,5.22-1.15,5.97.55Z"/>
              <path class="st31" d="M32.57,3.54c.73,1.68-.71,4.16-3.26,5.53-2.54,1.39-5.19,1.15-5.94-.53-.73-1.68.7-4.15,3.24-5.53,2.54-1.38,5.2-1.14,5.95.54Z"/>
              <path class="st71" d="M32.54,3.56c.75,1.66-.71,4.12-3.23,5.5-2.52,1.36-5.16,1.12-5.9-.55-.74-1.66.72-4.13,3.23-5.5,2.53-1.36,5.17-1.12,5.91.55Z"/>
              <path class="st111" d="M32.51,3.57c.73,1.66-.7,4.1-3.21,5.46-2.5,1.37-5.13,1.13-5.87-.52-.73-1.66.71-4.11,3.21-5.47,2.51-1.36,5.12-1.12,5.87.53Z"/>
              <path class="st155" d="M32.47,3.6c.73,1.64-.69,4.07-3.18,5.42-2.48,1.35-5.08,1.12-5.81-.53-.73-1.64.69-4.07,3.17-5.42,2.49-1.35,5.1-1.11,5.82.53Z"/>
              <path class="st67" d="M32.44,3.61c.72,1.63-.68,4.04-3.16,5.38-2.47,1.34-5.06,1.11-5.77-.53-.73-1.63.69-4.05,3.15-5.38,2.48-1.33,5.05-1.1,5.78.53Z"/>
              <path class="st184" d="M32.41,3.63c.71,1.62-.69,4.02-3.13,5.35-2.46,1.34-5.04,1.1-5.75-.52-.72-1.62.68-4.02,3.14-5.35,2.45-1.33,5.02-1.09,5.74.52Z"/>
              <path class="st61" d="M32.38,3.65c.72,1.61-.68,3.98-3.11,5.31-2.44,1.32-4.99,1.09-5.7-.52-.72-1.61.67-3.98,3.11-5.3,2.44-1.33,4.98-1.1,5.7.51Z"/>
              <path class="st8" d="M32.34,3.66c.71,1.59-.68,3.96-3.09,5.27-2.41,1.32-4.94,1.1-5.65-.5-.71-1.61.66-3.96,3.09-5.28,2.42-1.31,4.95-1.09,5.66.51Z"/>
              <path class="st78" d="M32.31,3.67c.71,1.6-.66,3.94-3.06,5.24-2.39,1.31-4.91,1.09-5.62-.51-.7-1.59.68-3.93,3.07-5.23,2.4-1.31,4.92-1.08,5.62.5Z"/>
              <path class="st163" d="M32.28,3.69c.7,1.57-.66,3.9-3.05,5.2-2.37,1.29-4.87,1.06-5.58-.5-.7-1.57.68-3.91,3.04-5.19,2.39-1.3,4.88-1.07,5.58.5Z"/>
              <path class="st47" d="M32.25,3.72c.69,1.55-.66,3.87-3.02,5.15-2.36,1.28-4.84,1.05-5.55-.51-.68-1.56.68-3.88,3.04-5.16,2.36-1.28,4.84-1.06,5.53.51Z"/>
              <path class="st157" d="M32.22,3.73c.68,1.55-.65,3.85-3,5.12-2.34,1.27-4.8,1.05-5.49-.5-.69-1.55.66-3.84,2.99-5.12,2.36-1.27,4.82-1.05,5.51.5Z"/>
              <path class="st114" d="M32.19,3.76c.68,1.54-.65,3.81-2.98,5.07-2.33,1.27-4.78,1.05-5.46-.49-.68-1.54.65-3.81,2.98-5.08,2.33-1.27,4.77-1.05,5.45.51Z"/>
              <path class="st95" d="M32.16,3.76c.67,1.53-.65,3.8-2.96,5.04-2.32,1.26-4.75,1.04-5.42-.49-.68-1.52.64-3.78,2.95-5.04,2.31-1.25,4.73-1.03,5.42.49Z"/>
              <path class="st162" d="M32.13,3.78c.67,1.52-.65,3.76-2.94,5.01-2.29,1.25-4.7,1.03-5.38-.49-.67-1.52.64-3.76,2.95-5,2.28-1.25,4.69-1.03,5.37.49Z"/>
              <path class="st124" d="M32.1,3.8c.67,1.51-.64,3.74-2.92,4.98-2.27,1.24-4.67,1.02-5.33-.49-.67-1.5.64-3.73,2.91-4.97,2.29-1.24,4.67-1.02,5.34.48Z"/>
              <path class="st91" d="M32.06,3.81c.66,1.49-.63,3.71-2.89,4.94-2.25,1.22-4.62,1.01-5.29-.48-.66-1.49.63-3.69,2.89-4.93,2.26-1.22,4.62-1.01,5.29.47Z"/>
              <path class="st165" d="M32.03,3.83c.66,1.48-.62,3.68-2.87,4.9-2.23,1.22-4.6,1-5.25-.48-.66-1.49.63-3.68,2.87-4.89,2.24-1.22,4.6-1.01,5.25.47Z"/>
              <path class="st89" d="M32,3.85c.65,1.46-.61,3.64-2.84,4.85-2.23,1.21-4.56.99-5.22-.47-.65-1.47.62-3.64,2.85-4.85,2.22-1.21,4.56-1,5.21.47Z"/>
              <path class="st121" d="M31.97,3.87c.65,1.45-.62,3.6-2.82,4.82-2.2,1.19-4.53.99-5.17-.47-.65-1.46.62-3.61,2.82-4.82,2.21-1.2,4.53-.99,5.17.47Z"/>
              <path class="st42" d="M31.94,3.88c.64,1.46-.62,3.6-2.81,4.79-2.19,1.19-4.49.98-5.12-.47-.65-1.45.61-3.59,2.8-4.77,2.18-1.19,4.49-.99,5.13.46Z"/>
              <path class="st63" d="M31.91,3.91c.64,1.44-.61,3.56-2.78,4.73-2.18,1.18-4.45.98-5.09-.46-.63-1.44.6-3.56,2.79-4.74,2.16-1.18,4.45-.98,5.08.47Z"/>
              <path class="st126" d="M31.88,3.93c.63,1.42-.62,3.52-2.76,4.69-2.16,1.18-4.41.97-5.05-.45-.63-1.43.59-3.54,2.76-4.71,2.15-1.16,4.43-.96,5.06.47Z"/>
              <path class="st175" d="M31.84,3.94c.63,1.41-.59,3.5-2.74,4.66-2.13,1.16-4.37.96-5-.46-.64-1.41.59-3.5,2.73-4.66,2.15-1.16,4.39-.96,5.01.46Z"/>
              <path class="st133" d="M31.81,3.95c.62,1.41-.59,3.47-2.71,4.63-2.13,1.15-4.35.95-4.97-.45-.63-1.41.6-3.48,2.71-4.63,2.13-1.15,4.35-.95,4.97.44Z"/>
              <path class="st58" d="M31.78,3.98c.62,1.38-.58,3.44-2.69,4.58-2.11,1.15-4.31.94-4.93-.45-.61-1.38.59-3.44,2.7-4.58,2.11-1.14,4.31-.94,4.92.45Z"/>
              <path class="st135" d="M31.74,3.99c.62,1.38-.57,3.42-2.66,4.54-2.09,1.15-4.27.94-4.88-.44-.62-1.38.59-3.42,2.67-4.55,2.09-1.14,4.27-.94,4.88.45Z"/>
              <path class="st53" d="M31.72,4c.6,1.38-.59,3.39-2.66,4.52-2.06,1.13-4.23.93-4.83-.44-.61-1.37.57-3.39,2.65-4.51,2.07-1.13,4.23-.93,4.84.44Z"/>
              <path class="st99" d="M31.69,4.02c.6,1.36-.57,3.36-2.63,4.47-2.05,1.12-4.21.92-4.8-.43-.6-1.36.57-3.36,2.63-4.47,2.05-1.11,4.2-.92,4.8.44Z"/>
              <path class="st5" d="M31.66,4.04c.61,1.35-.57,3.33-2.61,4.44-2.04,1.12-4.17.92-4.76-.42-.6-1.36.55-3.34,2.59-4.45,2.05-1.1,4.18-.91,4.78.43Z"/>
              <path class="st57" d="M31.62,4.06c.59,1.33-.57,3.3-2.58,4.4-2.02,1.1-4.13.9-4.72-.43-.59-1.33.57-3.29,2.58-4.4,2.02-1.09,4.14-.9,4.73.43Z"/>
              <path class="st18" d="M31.6,4.07c.57,1.32-.57,3.28-2.57,4.36-2,1.09-4.1.9-4.68-.42-.59-1.32.56-3.28,2.54-4.36,2.01-1.09,4.11-.9,4.7.42Z"/>
              <path class="st113" d="M31.56,4.09c.59,1.31-.55,3.25-2.53,4.33-1.98,1.07-4.06.88-4.65-.43-.58-1.31.56-3.25,2.53-4.33,1.99-1.07,4.07-.88,4.65.43Z"/>
              <path class="st84" d="M31.53,4.1c.57,1.31-.55,3.22-2.51,4.29-1.96,1.06-4.03.88-4.6-.42-.58-1.3.55-3.22,2.51-4.29,1.97-1.07,4.03-.88,4.6.42Z"/>
              <path class="st168" d="M31.5,4.13c.57,1.28-.55,3.19-2.49,4.24-1.95,1.06-3.99.88-4.56-.42-.57-1.27.53-3.17,2.48-4.24,1.96-1.07,4-.88,4.56.41Z"/>
              <path class="st30" d="M31.46,4.15c.58,1.27-.53,3.15-2.46,4.21-1.94,1.05-3.96.86-4.53-.41-.55-1.28.55-3.17,2.48-4.21,1.94-1.05,3.95-.86,4.51.42Z"/>
              <path class="st108" d="M31.43,4.16c.57,1.27-.53,3.13-2.45,4.17-1.91,1.03-3.93.85-4.47-.41-.56-1.27.53-3.13,2.44-4.17,1.92-1.04,3.92-.86,4.48.4Z"/>
              <path class="st130" d="M31.4,4.18c.56,1.25-.52,3.1-2.42,4.13-1.89,1.02-3.89.85-4.44-.4-.55-1.25.53-3.11,2.42-4.13,1.9-1.03,3.89-.85,4.44.4Z"/>
              <path class="st180" d="M31.38,4.19c.54,1.24-.53,3.08-2.41,4.09-1.88,1.03-3.85.85-4.4-.4-.55-1.24.52-3.08,2.4-4.1,1.87-1.02,3.84-.83,4.4.4Z"/>
              <path class="st180" d="M31.35,4.21c.55,1.22-.53,3.05-2.39,4.05-1.86,1.02-3.82.83-4.35-.4-.56-1.22.51-3.04,2.37-4.05,1.86-1.03,3.81-.83,4.36.4Z"/>
              <path class="st100" d="M31.3,4.22c.55,1.22-.51,3.02-2.35,4.03-1.84,1-3.78.82-4.32-.39-.53-1.22.51-3.02,2.35-4.03,1.85-1,3.77-.82,4.32.39Z"/>
              <path class="st120" d="M31.28,4.24c.54,1.21-.51,3-2.33,3.99-1.83.99-3.74.82-4.28-.39-.53-1.2.51-3,2.34-3.99,1.82-.99,3.74-.82,4.28.39Z"/>
              <path class="st120" d="M31.25,4.26c.53,1.2-.51,2.97-2.31,3.95-1.81.98-3.71.81-4.25-.39-.53-1.2.51-2.96,2.33-3.94,1.81-.98,3.7-.81,4.23.38Z"/>
              <path class="st29" d="M31.22,4.28c.52,1.19-.51,2.94-2.3,3.91-1.78.97-3.67.8-4.2-.38-.53-1.18.49-2.93,2.3-3.91,1.8-.97,3.67-.81,4.2.38Z"/>
              <path class="st167" d="M31.19,4.3c.52,1.16-.5,2.91-2.27,3.87-1.78.96-3.63.79-4.15-.38-.53-1.16.49-2.91,2.26-3.87,1.78-.96,3.64-.79,4.17.38Z"/>
              <path class="st173" d="M31.15,4.32c.51,1.16-.48,2.87-2.25,3.83-1.75.95-3.6.79-4.11-.38-.53-1.16.49-2.88,2.24-3.84,1.76-.95,3.6-.78,4.12.38Z"/>
              <path class="st166" d="M31.12,4.33c.51,1.15-.48,2.85-2.22,3.79-1.74.95-3.57.78-4.08-.36-.51-1.16.49-2.86,2.22-3.8,1.74-.94,3.56-.79,4.08.37Z"/>
              <path class="st166" d="M31.09,4.35c.51,1.14-.48,2.83-2.21,3.76-1.71.93-3.52.77-4.02-.37-.51-1.14.48-2.82,2.2-3.76,1.72-.94,3.52-.77,4.04.36Z"/>
              <path class="st181" d="M31.06,4.36c.5,1.12-.48,2.79-2.18,3.72-1.71.92-3.5.76-4-.38-.49-1.11.48-2.78,2.18-3.71,1.71-.92,3.49-.76,4,.37Z"/>
              <path class="st131" d="M31.02,4.38c.5,1.11-.47,2.77-2.15,3.68-1.71.92-3.46.76-3.96-.36-.49-1.12.47-2.76,2.16-3.68,1.69-.92,3.45-.76,3.95.36Z"/>
              <path class="st131" d="M31,4.4c.49,1.1-.47,2.73-2.14,3.65-1.66.9-3.41.74-3.91-.36-.5-1.1.46-2.72,2.14-3.65,1.67-.9,3.42-.75,3.91.36Z"/>
              <path class="st68" d="M30.96,4.41c.48,1.09-.46,2.72-2.11,3.6-1.65.9-3.39.74-3.88-.35-.48-1.09.48-2.71,2.12-3.61,1.65-.9,3.39-.74,3.87.35Z"/>
              <path class="st68" d="M30.93,4.43c.49,1.08-.45,2.67-2.09,3.56-1.63.89-3.35.73-3.83-.35-.49-1.08.45-2.67,2.09-3.56,1.64-.89,3.36-.74,3.83.35Z"/>
              <path class="st7" d="M30.89,4.45c.48,1.06-.44,2.65-2.07,3.53-1.61.87-3.3.72-3.78-.35-.47-1.07.46-2.65,2.07-3.54,1.62-.88,3.32-.72,3.78.36Z"/>
              <path class="st7" d="M30.87,4.46c.47,1.07-.44,2.63-2.06,3.49-1.59.87-3.27.72-3.73-.34-.47-1.07.44-2.63,2.05-3.49,1.59-.87,3.28-.72,3.75.34Z"/>
              <path class="st82" d="M30.85,4.48c.46,1.05-.45,2.59-2.03,3.45-1.59.87-3.24.71-3.71-.33-.46-1.05.44-2.59,2.03-3.45,1.59-.88,3.26-.72,3.72.33Z"/>
              <path class="st82" d="M30.81,4.49c.46,1.04-.44,2.57-2.01,3.42-1.58.86-3.21.7-3.67-.34-.47-1.03.43-2.57,2-3.41,1.56-.85,3.21-.7,3.67.33Z"/>
              <path class="st16" d="M30.77,4.52c.46,1.03-.43,2.54-1.98,3.38-1.55.84-3.18.7-3.63-.33-.45-1.02.43-2.54,1.98-3.38,1.55-.84,3.17-.7,3.62.33Z"/>
              <path class="st16" d="M30.74,4.54c.45,1.01-.43,2.5-1.96,3.34-1.53.83-3.14.68-3.58-.33-.46-1.01.42-2.5,1.96-3.34,1.53-.83,3.13-.68,3.58.33Z"/>
              <path class="st93" d="M30.72,4.55c.44,1.01-.43,2.48-1.94,3.31-1.53.81-3.11.67-3.55-.33-.45-1.01.43-2.48,1.93-3.31,1.52-.81,3.11-.68,3.56.33Z"/>
              <path class="st93" d="M30.68,4.56c.43,1-.42,2.45-1.92,3.27-1.5.81-3.08.68-3.51-.32-.43-.99.43-2.45,1.92-3.26,1.51-.81,3.07-.67,3.51.31Z"/>
              <path class="st86" d="M30.65,4.58c.43.98-.42,2.42-1.9,3.23-1.48.81-3.02.66-3.45-.32-.44-.97.4-2.41,1.87-3.22,1.49-.81,3.04-.66,3.47.31Z"/>
              <path class="st86" d="M30.62,4.6c.43.97-.41,2.4-1.87,3.19-1.46.8-3,.65-3.43-.31-.43-.98.41-2.4,1.87-3.19,1.46-.8,2.99-.66,3.42.31Z"/>
              <path class="st72" d="M30.59,4.62c.42.95-.41,2.36-1.85,3.16-1.44.77-2.96.64-3.38-.31-.42-.96.4-2.37,1.85-3.16,1.44-.77,2.97-.64,3.39.32Z"/>
              <path class="st72" d="M30.56,4.63c.42.94-.4,2.35-1.83,3.11-1.43.78-2.92.64-3.34-.3-.42-.94.39-2.34,1.83-3.11,1.42-.77,2.93-.64,3.35.3Z"/>
              <path class="st97" d="M30.52,4.65c.42.92-.4,2.32-1.8,3.08-1.42.77-2.9.63-3.31-.29-.41-.95.4-2.31,1.81-3.09,1.41-.77,2.89-.63,3.3.3Z"/>
              <path class="st97" d="M30.49,4.67c.4.92-.39,2.28-1.78,3.03-1.39.76-2.85.62-3.26-.3-.41-.92.4-2.28,1.79-3.02,1.4-.76,2.85-.62,3.26.29Z"/>
              <path class="st97" d="M30.46,4.69c.4.92-.39,2.25-1.76,3-1.37.75-2.82.62-3.23-.29-.4-.91.39-2.25,1.76-3,1.38-.75,2.83-.62,3.23.29Z"/>
              <path class="st156" d="M30.43,4.71c.4.89-.38,2.22-1.74,2.96-1.35.73-2.78.61-3.18-.29-.39-.91.37-2.23,1.74-2.97,1.36-.74,2.78-.61,3.18.3Z"/>
              <path class="st156" d="M30.4,4.73c.39.88-.38,2.19-1.72,2.92-1.34.73-2.74.6-3.14-.29-.39-.88.38-2.19,1.72-2.92,1.33-.72,2.74-.6,3.14.3Z"/>
              <path class="st156" d="M30.37,4.74c.38.88-.38,2.17-1.7,2.89-1.32.73-2.72.6-3.1-.27-.4-.88.36-2.17,1.69-2.89,1.33-.73,2.71-.6,3.11.27Z"/>
              <path class="st51" d="M30.33,4.75c.39.86-.36,2.14-1.66,2.85-1.31.7-2.68.58-3.07-.28-.38-.86.37-2.14,1.68-2.85,1.29-.7,2.68-.58,3.05.28Z"/>
              <path class="st51" d="M30.31,4.77c.38.85-.37,2.11-1.66,2.82-1.29.7-2.64.58-3.02-.27-.38-.86.36-2.11,1.65-2.83,1.28-.68,2.63-.57,3.03.28Z"/>
              <path class="st51" d="M30.28,4.79c.36.85-.36,2.08-1.63,2.77-1.27.7-2.6.57-2.98-.27-.38-.84.36-2.07,1.63-2.76,1.27-.7,2.61-.57,2.98.27Z"/>
              <path class="st119" d="M30.24,4.81c.38.83-.34,2.05-1.6,2.73-1.26.69-2.56.57-2.93-.26-.36-.84.35-2.05,1.59-2.74,1.27-.68,2.58-.55,2.94.28Z"/>
              <path class="st119" d="M30.21,4.83c.37.81-.34,2.03-1.58,2.69-1.25.68-2.53.56-2.9-.27-.36-.81.34-2.02,1.59-2.69,1.23-.68,2.53-.56,2.89.27Z"/>
              <path class="st119" d="M30.17,4.84c.37.81-.33,2-1.56,2.67-1.22.66-2.48.54-2.85-.26-.36-.81.34-2.01,1.56-2.67,1.22-.66,2.51-.54,2.85.26Z"/>
              <path class="st119" d="M30.15,4.85c.34.8-.35,1.97-1.55,2.63-1.2.65-2.46.54-2.83-.25-.34-.79.35-1.97,1.55-2.62,1.2-.66,2.46-.54,2.82.25Z"/>
              <path class="st12" d="M30.12,4.88c.35.78-.34,1.94-1.51,2.58-1.2.64-2.43.53-2.78-.25-.35-.77.33-1.94,1.53-2.58,1.18-.64,2.42-.53,2.77.25Z"/>
              <path class="st12" d="M30.09,4.89c.33.77-.33,1.92-1.51,2.55-1.16.63-2.39.53-2.72-.25-.35-.77.31-1.92,1.49-2.56,1.16-.63,2.39-.52,2.74.25Z"/>
              <path class="st12" d="M30.05,4.91c.34.76-.32,1.89-1.46,2.51-1.15.63-2.36.51-2.7-.24-.33-.77.32-1.89,1.48-2.51,1.15-.63,2.35-.51,2.69.24Z"/>
              <path class="st12" d="M30.03,4.92c.32.76-.32,1.86-1.46,2.48-1.14.61-2.32.5-2.65-.24-.33-.76.32-1.86,1.45-2.48,1.14-.62,2.32-.51,2.66.23Z"/>
              <path class="st12" d="M29.98,4.95c.33.73-.31,1.83-1.42,2.44-1.12.61-2.29.49-2.62-.25-.32-.72.32-1.83,1.42-2.43,1.13-.6,2.28-.49,2.61.25Z"/>
            </g>
          </g>
        </g>
      </g>
    </g>
  </g>
</svg>